<svg width="359" height="60" viewBox="0 0 359 60" fill="none" xmlns="http://www.w3.org/2000/svg">
<path d="M41.8182 24.7438H36.9091V19.85C36.9091 19.493 36.8385 19.1394 36.7015 18.8096C36.5644 18.4797 36.3635 18.18 36.1103 17.9276C35.857 17.6751 35.5564 17.4748 35.2255 17.3382C34.8946 17.2016 34.54 17.1313 34.1818 17.1313H29.8182C29.0949 17.1313 28.4012 17.4177 27.8897 17.9276C27.3782 18.4374 27.0909 19.1289 27.0909 19.85V24.7438H22.1818C21.4585 24.7438 20.7648 25.0302 20.2533 25.5401C19.7419 26.0499 19.4545 26.7414 19.4545 27.4625V31.8125C19.4545 32.5336 19.7419 33.2251 20.2533 33.7349C20.7648 34.2448 21.4585 34.5313 22.1818 34.5313H27.0909V45.95C27.0909 46.6711 27.3782 47.3626 27.8897 47.8724C28.4012 48.3823 29.0949 48.6688 29.8182 48.6688H34.1818C34.54 48.6688 34.8946 48.5984 35.2255 48.4618C35.5564 48.3252 35.857 48.1249 36.1103 47.8724C36.3635 47.62 36.5644 47.3203 36.7015 46.9904C36.8385 46.6606 36.9091 46.307 36.9091 45.95V34.5313H41.8182C42.5415 34.5313 43.2352 34.2448 43.7467 33.7349C44.2581 33.2251 44.5455 32.5336 44.5455 31.8125V27.4625C44.5455 26.7414 44.2581 26.0499 43.7467 25.5401C43.2352 25.0302 42.5415 24.7438 41.8182 24.7438ZM41.2727 31.2688H36.3636C35.6403 31.2688 34.9466 31.5552 34.4352 32.0651C33.9237 32.5749 33.6364 33.2664 33.6364 33.9875V45.4063H30.3636V33.9875C30.3636 33.2664 30.0763 32.5749 29.5648 32.0651C29.0534 31.5552 28.3597 31.2688 27.6364 31.2688H22.7273V28.0063H27.6364C27.9945 28.0063 28.3492 27.9359 28.68 27.7993C29.0109 27.6627 29.3116 27.4624 29.5648 27.2099C29.8181 26.9575 30.019 26.6578 30.156 26.3279C30.2931 25.9981 30.3636 25.6445 30.3636 25.2875V20.3938H33.6364V25.2875C33.6364 25.6445 33.7069 25.9981 33.844 26.3279C33.981 26.6578 34.1819 26.9575 34.4352 27.2099C34.9466 27.7198 35.6403 28.0063 36.3636 28.0063H41.2727V31.2688Z" fill="#EBEBD3"/>
<path d="M58.1818 1H5.81818C2.61818 1 0 3.61 0 6.8V53.2C0 56.39 2.61818 59 5.81818 59H58.1818C61.3818 59 64 56.39 64 53.2V6.8C64 3.61 61.3818 1 58.1818 1ZM58.1818 53.2H5.81818V12.6H58.1818V53.2Z" fill="#EBEBD3"/>
<path d="M11.6364 6.8C11.6364 8.40163 10.3339 9.7 8.72727 9.7C7.12063 9.7 5.81818 8.40163 5.81818 6.8C5.81818 5.19837 7.12063 3.9 8.72727 3.9C10.3339 3.9 11.6364 5.19837 11.6364 6.8Z" fill="black"/>
<path d="M20.3636 6.8C20.3636 8.40163 19.0612 9.7 17.4545 9.7C15.8479 9.7 14.5455 8.40163 14.5455 6.8C14.5455 5.19837 15.8479 3.9 17.4545 3.9C19.0612 3.9 20.3636 5.19837 20.3636 6.8Z" fill="black"/>
<path d="M29.0909 6.8C29.0909 8.40163 27.7885 9.7 26.1818 9.7C24.5752 9.7 23.2727 8.40163 23.2727 6.8C23.2727 5.19837 24.5752 3.9 26.1818 3.9C27.7885 3.9 29.0909 5.19837 29.0909 6.8Z" fill="black"/>
<path d="M112.768 37.5312H118.768C118.455 40.4062 117.632 42.9792 116.299 45.25C114.965 47.5208 113.08 49.3229 110.643 50.6562C108.205 51.9688 105.163 52.625 101.518 52.625C98.8508 52.625 96.4238 52.125 94.2363 51.125C92.0696 50.125 90.205 48.7083 88.6425 46.875C87.08 45.0208 85.8717 42.8021 85.0175 40.2188C84.1842 37.6146 83.7675 34.7188 83.7675 31.5312V27C83.7675 23.8125 84.1842 20.9271 85.0175 18.3438C85.8717 15.7396 87.0904 13.5104 88.6738 11.6562C90.2779 9.80208 92.205 8.375 94.455 7.375C96.705 6.375 99.2363 5.875 102.049 5.875C105.486 5.875 108.393 6.52083 110.768 7.8125C113.143 9.10417 114.986 10.8958 116.299 13.1875C117.632 15.4583 118.455 18.0938 118.768 21.0938H112.768C112.476 18.9688 111.934 17.1458 111.143 15.625C110.351 14.0833 109.226 12.8958 107.768 12.0625C106.309 11.2292 104.403 10.8125 102.049 10.8125C100.028 10.8125 98.2467 11.1979 96.705 11.9688C95.1842 12.7396 93.9029 13.8333 92.8613 15.25C91.8404 16.6667 91.0696 18.3646 90.5488 20.3438C90.0279 22.3229 89.7675 24.5208 89.7675 26.9375V31.5312C89.7675 33.7604 89.9967 35.8542 90.455 37.8125C90.9342 39.7708 91.6529 41.4896 92.6113 42.9688C93.5696 44.4479 94.7883 45.6146 96.2675 46.4688C97.7467 47.3021 99.4967 47.7188 101.518 47.7188C104.08 47.7188 106.122 47.3125 107.643 46.5C109.163 45.6875 110.309 44.5208 111.08 43C111.872 41.4792 112.434 39.6562 112.768 37.5312ZM129.653 23.5V52H123.871V18.1875H129.496L129.653 23.5ZM140.215 18L140.184 23.375C139.705 23.2708 139.246 23.2083 138.809 23.1875C138.392 23.1458 137.913 23.125 137.371 23.125C136.038 23.125 134.861 23.3333 133.84 23.75C132.819 24.1667 131.955 24.75 131.246 25.5C130.538 26.25 129.975 27.1458 129.559 28.1875C129.163 29.2083 128.903 30.3333 128.778 31.5625L127.153 32.5C127.153 30.4583 127.35 28.5417 127.746 26.75C128.163 24.9583 128.798 23.375 129.653 22C130.507 20.6042 131.59 19.5208 132.903 18.75C134.236 17.9583 135.819 17.5625 137.653 17.5625C138.069 17.5625 138.548 17.6146 139.09 17.7188C139.632 17.8021 140.007 17.8958 140.215 18ZM141.163 35.4688V34.75C141.163 32.3125 141.517 30.0521 142.225 27.9688C142.933 25.8646 143.954 24.0417 145.288 22.5C146.621 20.9375 148.235 19.7292 150.131 18.875C152.027 18 154.152 17.5625 156.506 17.5625C158.881 17.5625 161.017 18 162.913 18.875C164.829 19.7292 166.454 20.9375 167.788 22.5C169.142 24.0417 170.173 25.8646 170.881 27.9688C171.59 30.0521 171.944 32.3125 171.944 34.75V35.4688C171.944 37.9062 171.59 40.1667 170.881 42.25C170.173 44.3333 169.142 46.1562 167.788 47.7188C166.454 49.2604 164.84 50.4688 162.944 51.3438C161.069 52.1979 158.944 52.625 156.569 52.625C154.194 52.625 152.058 52.1979 150.163 51.3438C148.267 50.4688 146.642 49.2604 145.288 47.7188C143.954 46.1562 142.933 44.3333 142.225 42.25C141.517 40.1667 141.163 37.9062 141.163 35.4688ZM146.944 34.75V35.4688C146.944 37.1562 147.142 38.75 147.538 40.25C147.933 41.7292 148.527 43.0417 149.319 44.1875C150.131 45.3333 151.142 46.2396 152.35 46.9062C153.558 47.5521 154.965 47.875 156.569 47.875C158.152 47.875 159.538 47.5521 160.725 46.9062C161.933 46.2396 162.933 45.3333 163.725 44.1875C164.517 43.0417 165.11 41.7292 165.506 40.25C165.923 38.75 166.131 37.1562 166.131 35.4688V34.75C166.131 33.0833 165.923 31.5104 165.506 30.0312C165.11 28.5312 164.506 27.2083 163.694 26.0625C162.902 24.8958 161.902 23.9792 160.694 23.3125C159.506 22.6458 158.11 22.3125 156.506 22.3125C154.923 22.3125 153.527 22.6458 152.319 23.3125C151.131 23.9792 150.131 24.8958 149.319 26.0625C148.527 27.2083 147.933 28.5312 147.538 30.0312C147.142 31.5104 146.944 33.0833 146.944 34.75ZM196.641 43.0312C196.641 42.1979 196.454 41.4271 196.079 40.7188C195.725 39.9896 194.985 39.3333 193.86 38.75C192.756 38.1458 191.089 37.625 188.86 37.1875C186.985 36.7917 185.287 36.3229 183.766 35.7812C182.266 35.2396 180.985 34.5833 179.923 33.8125C178.881 33.0417 178.079 32.1354 177.516 31.0938C176.954 30.0521 176.673 28.8333 176.673 27.4375C176.673 26.1042 176.964 24.8438 177.548 23.6562C178.152 22.4688 178.995 21.4167 180.079 20.5C181.183 19.5833 182.506 18.8646 184.048 18.3438C185.589 17.8229 187.308 17.5625 189.204 17.5625C191.912 17.5625 194.225 18.0417 196.141 19C198.058 19.9583 199.527 21.2396 200.548 22.8438C201.568 24.4271 202.079 26.1875 202.079 28.125H196.298C196.298 27.1875 196.016 26.2812 195.454 25.4062C194.912 24.5104 194.11 23.7708 193.048 23.1875C192.006 22.6042 190.725 22.3125 189.204 22.3125C187.6 22.3125 186.298 22.5625 185.298 23.0625C184.318 23.5417 183.6 24.1562 183.141 24.9062C182.704 25.6562 182.485 26.4479 182.485 27.2812C182.485 27.9062 182.589 28.4688 182.798 28.9688C183.027 29.4479 183.423 29.8958 183.985 30.3125C184.548 30.7083 185.339 31.0833 186.36 31.4375C187.381 31.7917 188.683 32.1458 190.266 32.5C193.037 33.125 195.318 33.875 197.11 34.75C198.902 35.625 200.235 36.6979 201.11 37.9688C201.985 39.2396 202.423 40.7812 202.423 42.5938C202.423 44.0729 202.11 45.4271 201.485 46.6562C200.881 47.8854 199.995 48.9479 198.829 49.8438C197.683 50.7188 196.308 51.4062 194.704 51.9062C193.12 52.3854 191.339 52.625 189.36 52.625C186.381 52.625 183.86 52.0938 181.798 51.0312C179.735 49.9688 178.173 48.5938 177.11 46.9062C176.048 45.2188 175.516 43.4375 175.516 41.5625H181.329C181.412 43.1458 181.87 44.4062 182.704 45.3438C183.537 46.2604 184.558 46.9167 185.766 47.3125C186.975 47.6875 188.173 47.875 189.36 47.875C190.943 47.875 192.266 47.6667 193.329 47.25C194.412 46.8333 195.235 46.2604 195.798 45.5312C196.36 44.8021 196.641 43.9688 196.641 43.0312ZM227.464 43.0312C227.464 42.1979 227.276 41.4271 226.901 40.7188C226.547 39.9896 225.808 39.3333 224.683 38.75C223.578 38.1458 221.912 37.625 219.683 37.1875C217.808 36.7917 216.11 36.3229 214.589 35.7812C213.089 35.2396 211.808 34.5833 210.745 33.8125C209.703 33.0417 208.901 32.1354 208.339 31.0938C207.776 30.0521 207.495 28.8333 207.495 27.4375C207.495 26.1042 207.787 24.8438 208.37 23.6562C208.974 22.4688 209.818 21.4167 210.901 20.5C212.005 19.5833 213.328 18.8646 214.87 18.3438C216.412 17.8229 218.13 17.5625 220.026 17.5625C222.735 17.5625 225.047 18.0417 226.964 19C228.88 19.9583 230.349 21.2396 231.37 22.8438C232.391 24.4271 232.901 26.1875 232.901 28.125H227.12C227.12 27.1875 226.839 26.2812 226.276 25.4062C225.735 24.5104 224.933 23.7708 223.87 23.1875C222.828 22.6042 221.547 22.3125 220.026 22.3125C218.422 22.3125 217.12 22.5625 216.12 23.0625C215.141 23.5417 214.422 24.1562 213.964 24.9062C213.526 25.6562 213.308 26.4479 213.308 27.2812C213.308 27.9062 213.412 28.4688 213.62 28.9688C213.849 29.4479 214.245 29.8958 214.808 30.3125C215.37 30.7083 216.162 31.0833 217.183 31.4375C218.203 31.7917 219.505 32.1458 221.089 32.5C223.86 33.125 226.141 33.875 227.933 34.75C229.724 35.625 231.058 36.6979 231.933 37.9688C232.808 39.2396 233.245 40.7812 233.245 42.5938C233.245 44.0729 232.933 45.4271 232.308 46.6562C231.703 47.8854 230.818 48.9479 229.651 49.8438C228.505 50.7188 227.13 51.4062 225.526 51.9062C223.943 52.3854 222.162 52.625 220.183 52.625C217.203 52.625 214.683 52.0938 212.62 51.0312C210.558 49.9688 208.995 48.5938 207.933 46.9062C206.87 45.2188 206.339 43.4375 206.339 41.5625H212.151C212.235 43.1458 212.693 44.4062 213.526 45.3438C214.36 46.2604 215.38 46.9167 216.589 47.3125C217.797 47.6875 218.995 47.875 220.183 47.875C221.766 47.875 223.089 47.6667 224.151 47.25C225.235 46.8333 226.058 46.2604 226.62 45.5312C227.183 44.8021 227.464 43.9688 227.464 43.0312ZM280.702 47.0938V52H257.952V47.0938H280.702ZM259.14 6.5V52H253.109V6.5H259.14ZM290.775 18.1875V52H284.963V18.1875H290.775ZM284.525 9.21875C284.525 8.28125 284.806 7.48958 285.369 6.84375C285.952 6.19792 286.806 5.875 287.931 5.875C289.035 5.875 289.879 6.19792 290.463 6.84375C291.067 7.48958 291.369 8.28125 291.369 9.21875C291.369 10.1146 291.067 10.8854 290.463 11.5312C289.879 12.1562 289.035 12.4688 287.931 12.4688C286.806 12.4688 285.952 12.1562 285.369 11.5312C284.806 10.8854 284.525 10.1146 284.525 9.21875ZM303.598 25.4062V52H297.816V18.1875H303.285L303.598 25.4062ZM302.223 33.8125L299.816 33.7188C299.837 31.4062 300.181 29.2708 300.848 27.3125C301.514 25.3333 302.452 23.6146 303.66 22.1562C304.868 20.6979 306.306 19.5729 307.973 18.7812C309.66 17.9688 311.525 17.5625 313.566 17.5625C315.233 17.5625 316.733 17.7917 318.066 18.25C319.4 18.6875 320.535 19.3958 321.473 20.375C322.431 21.3542 323.16 22.625 323.66 24.1875C324.16 25.7292 324.41 27.6146 324.41 29.8438V52H318.598V29.7812C318.598 28.0104 318.337 26.5938 317.816 25.5312C317.295 24.4479 316.535 23.6667 315.535 23.1875C314.535 22.6875 313.306 22.4375 311.848 22.4375C310.41 22.4375 309.098 22.7396 307.91 23.3438C306.743 23.9479 305.733 24.7812 304.879 25.8438C304.045 26.9062 303.389 28.125 302.91 29.5C302.452 30.8542 302.223 32.2917 302.223 33.8125ZM336.764 4V52H330.951V4H336.764ZM357.42 18.1875L342.67 33.9688L334.42 42.5312L333.951 36.375L339.857 29.3125L350.357 18.1875H357.42ZM352.139 52L340.076 35.875L343.076 30.7188L358.951 52H352.139Z" fill="#EBEBD3"/>
</svg>
