<svg width="250" height="402" viewBox="0 0 250 402" fill="none" xmlns="http://www.w3.org/2000/svg">
<path d="M80.5653 289.738C64.88 274.037 64.88 248.581 80.5653 232.88C96.2506 217.178 121.681 217.178 137.367 232.88L237.253 332.866C252.938 348.567 252.938 374.023 237.253 389.724C221.567 405.425 196.136 405.425 180.451 389.724L80.5653 289.738Z" fill="#5393FF" fill-opacity="0.8"/>
<path d="M137.85 288.489C122.165 304.19 96.7341 304.19 81.0488 288.489C65.3634 272.788 65.3635 247.332 81.0488 231.631L180.934 131.645C196.62 115.944 222.051 115.944 237.736 131.645C253.421 147.346 253.421 172.802 237.736 188.503L137.85 288.489Z" fill="#8561C5" fill-opacity="0.8"/>
<path d="M69.0655 223.461C53.3802 239.162 27.9493 239.162 12.264 223.461C-3.42133 207.76 -3.42132 182.303 12.264 166.602L166.435 12.2758C182.121 -3.42525 207.552 -3.42529 223.237 12.2758C238.922 27.9768 238.922 53.4333 223.237 69.1344L69.0655 223.461Z" fill="#673AB7"/>
</svg>
