<svg width="952" height="462" viewBox="0 0 952 462" fill="none" xmlns="http://www.w3.org/2000/svg">
<path d="M61.9493 292.962C50.9884 281.998 50.9884 264.223 61.9492 253.26C72.91 242.297 90.681 242.297 101.642 253.26L171.442 323.076C182.402 334.039 182.402 351.814 171.442 362.777C160.481 373.741 142.71 373.741 131.749 362.777L61.9493 292.962Z" fill="#5393FF" fill-opacity="0.8"/>
<path d="M101.98 292.09C91.0189 303.053 73.2479 303.053 62.2871 292.09C51.3263 281.126 51.3263 263.351 62.2871 252.388L132.087 182.572C143.048 171.609 160.819 171.609 171.779 182.572C182.74 193.536 182.74 211.311 171.779 222.274L101.98 292.09Z" fill="#8561C5" fill-opacity="0.8"/>
<path d="M53.9133 246.683C42.9524 257.647 25.1814 257.647 14.2206 246.683C3.25979 235.72 3.2598 217.945 14.2206 206.981L121.955 99.2225C132.916 88.2592 150.687 88.2592 161.647 99.2225C172.608 110.186 172.608 127.961 161.647 138.924L53.9133 246.683Z" fill="#673AB7"/>
<path d="M323.856 298.096V326H211.728V148.592H243.984V298.096H323.856ZM354.356 237.168C354.356 246.896 355.551 255.771 357.94 263.792C360.329 271.643 363.743 278.384 368.18 284.016C372.788 289.477 378.335 293.744 384.82 296.816C391.305 299.888 398.644 301.424 406.836 301.424C414.857 301.424 422.111 299.888 428.596 296.816C435.081 293.744 440.543 289.477 444.98 284.016C449.588 278.384 453.087 271.643 455.476 263.792C457.865 255.771 459.06 246.896 459.06 237.168C459.06 227.44 457.865 218.651 455.476 210.8C453.087 202.779 449.588 196.037 444.98 190.576C440.543 184.944 435.081 180.592 428.596 177.52C422.111 174.448 414.857 172.912 406.836 172.912C398.644 172.912 391.305 174.448 384.82 177.52C378.335 180.592 372.788 184.944 368.18 190.576C363.743 196.208 360.329 202.949 357.94 210.8C355.551 218.651 354.356 227.44 354.356 237.168ZM492.852 237.168C492.852 252.357 490.548 265.755 485.94 277.36C481.503 288.965 475.359 298.693 467.508 306.544C459.828 314.224 450.783 320.027 440.372 323.952C429.961 327.877 418.868 329.84 407.092 329.84C395.316 329.84 384.137 327.877 373.556 323.952C363.145 320.027 354.015 314.224 346.164 306.544C338.484 298.693 332.34 288.965 327.732 277.36C323.124 265.755 320.82 252.357 320.82 237.168C320.82 221.979 323.124 208.667 327.732 197.232C332.34 185.627 338.569 175.899 346.42 168.048C354.441 160.197 363.657 154.309 374.068 150.384C384.479 146.459 395.487 144.496 407.092 144.496C418.697 144.496 429.705 146.459 440.116 150.384C450.527 154.309 459.572 160.197 467.252 168.048C475.103 175.899 481.332 185.627 485.94 197.232C490.548 208.667 492.852 221.979 492.852 237.168ZM556.654 148.592C560.409 155.077 564.59 163.013 569.198 172.4C573.806 181.787 578.499 191.685 583.278 202.096C588.057 212.336 592.75 222.832 597.358 233.584C602.137 244.165 606.489 253.979 610.414 263.024C614.339 253.979 618.606 244.165 623.214 233.584C627.822 222.832 632.515 212.336 637.294 202.096C642.073 191.685 646.766 181.787 651.374 172.4C655.982 163.013 660.163 155.077 663.918 148.592H693.102C694.638 161.563 696.089 175.387 697.454 190.064C698.819 204.571 700.014 219.504 701.038 234.864C702.233 250.053 703.257 265.413 704.11 280.944C705.134 296.304 705.987 311.323 706.67 326H674.926C674.243 305.349 673.39 284.101 672.366 262.256C671.513 240.411 670.147 219.248 668.27 198.768C666.393 202.693 664.174 207.387 661.614 212.848C659.054 218.309 656.323 224.283 653.422 230.768C650.521 237.083 647.534 243.653 644.462 250.48C641.561 257.307 638.659 263.963 635.758 270.448C633.027 276.763 630.467 282.736 628.078 288.368C625.689 293.829 623.641 298.523 621.934 302.448H597.87C596.163 298.523 594.115 293.744 591.726 288.112C589.337 282.48 586.691 276.507 583.79 270.192C581.059 263.707 578.158 257.051 575.086 250.224C572.185 243.397 569.283 236.827 566.382 230.512C563.481 224.197 560.75 218.309 558.19 212.848C555.63 207.216 553.411 202.523 551.534 198.768C549.657 219.248 548.206 240.411 547.182 262.256C546.329 284.101 545.561 305.349 544.878 326H513.134C513.817 311.323 514.585 296.133 515.438 280.432C516.462 264.731 517.486 249.2 518.51 233.84C519.705 218.309 520.985 203.291 522.35 188.784C523.715 174.277 525.166 160.88 526.702 148.592H556.654ZM734.008 148.592H766.264V326H734.008V148.592ZM903.734 326C898.785 315.931 892.555 304.837 885.046 292.72C877.537 280.603 869.686 268.912 861.494 257.648C858.081 262.085 854.326 267.376 850.23 273.52C846.305 279.664 842.294 285.979 838.198 292.464C834.273 298.779 830.603 304.923 827.19 310.896C823.777 316.869 821.046 321.904 818.998 326H782.39C790.07 311.493 798.945 296.645 809.014 281.456C819.083 266.096 830.006 250.053 841.782 233.328L784.95 148.592H823.35L862.518 209.264L901.174 148.592H938.038L881.974 233.072C894.945 250.651 906.379 267.291 916.278 282.992C926.347 298.693 934.795 313.029 941.622 326H903.734Z" fill="black"/>
</svg>
